HIERARCHY
ROOT Hips
{
 OFFSET 0.000000 0.000000 0.000000
 CHANNELS 6 Xposition Yposition Zposition Yrotation Xrotation Zrotation
 JOINT Chest
 {
  OFFSET 0.000000 12.953391 -0.028419
  CHANNELS 3 Yrotation Xrotation Zrotation
  JOINT Chest2
  {
   OFFSET 0.000000 10.280254 0.051622
   CHANNELS 3 Yrotation Xrotation Zrotation
   JOINT Chest3
   {
    OFFSET 0.000000 9.287180 0.000000
    CHANNELS 3 Yrotation Xrotation Zrotation
    JOINT Chest4
    {
     OFFSET 0.000000 9.287180 0.000000
     CHANNELS 3 Yrotation Xrotation Zrotation
     JOINT Neck
     {
      OFFSET 0.000000 13.296264 0.000000
      CHANNELS 3 Yrotation Xrotation Zrotation
      JOINT Head
      {
       OFFSET 0.000000 8.959264 0.099003
       CHANNELS 3 Yrotation Xrotation Zrotation
       End Site
       {
        OFFSET 0.000000 17.121337 0.039303
       }
      }
     }
     JOINT RightCollar
     {
      OFFSET -3.193511 7.451388 0.000000
      CHANNELS 3 Yrotation Xrotation Zrotation
      JOINT RightShoulder
      {
       OFFSET -15.792092 0.000000 0.000000
       CHANNELS 3 Yrotation Xrotation Zrotation
       JOINT RightElbow
       {
        OFFSET -31.151839 0.000000 0.000000
        CHANNELS 3 Yrotation Xrotation Zrotation
        JOINT RightWrist
        {
         OFFSET -25.536298 0.000000 0.002321
         CHANNELS 3 Yrotation Xrotation Zrotation
         End Site
         {
          OFFSET -19.133213 0.000000 0.000000
         }
        }
       }
      }
     }
     JOINT LeftCollar
     {
      OFFSET 3.193511 7.451388 0.000000
      CHANNELS 3 Yrotation Xrotation Zrotation
      JOINT LeftShoulder
      {
       OFFSET 15.792092 0.000000 0.000000
       CHANNELS 3 Yrotation Xrotation Zrotation
       JOINT LeftElbow
       {
        OFFSET 31.151839 0.000000 0.000000
        CHANNELS 3 Yrotation Xrotation Zrotation
        JOINT LeftWrist
        {
         OFFSET 25.536298 0.000000 0.002321
         CHANNELS 3 Yrotation Xrotation Zrotation
         End Site
         {
          OFFSET 19.133213 0.000000 0.000000
         }
        }
       }
      }
     }
    }
   }
  }
 }
 JOINT RightHip
 {
  OFFSET -10.745749 0.139252 0.014209
  CHANNELS 3 Yrotation Xrotation Zrotation
  JOINT RightKnee
  {
   OFFSET 0.000000 -43.743899 -0.006071
   CHANNELS 3 Yrotation Xrotation Zrotation
   JOINT RightAnkle
   {
    OFFSET 0.000000 -43.214199 0.089931
    CHANNELS 3 Yrotation Xrotation Zrotation
    JOINT RightToe
    {
     OFFSET 0.000000 -9.699830 19.151588
     CHANNELS 3 Yrotation Xrotation Zrotation
     End Site
     {
      OFFSET 0.000000 -1.292898 4.893873
     }
    }
   }
  }
 }
 JOINT LeftHip
 {
  OFFSET 10.745749 0.139252 0.014209
  CHANNELS 3 Yrotation Xrotation Zrotation
  JOINT LeftKnee
  {
   OFFSET 0.000000 -43.743899 -0.006071
   CHANNELS 3 Yrotation Xrotation Zrotation
   JOINT LeftAnkle
   {
    OFFSET 0.000000 -43.214199 0.089931
    CHANNELS 3 Yrotation Xrotation Zrotation
    JOINT LeftToe
    {
     OFFSET 0.000000 -9.699830 19.151588
     CHANNELS 3 Yrotation Xrotation Zrotation
     End Site
     {
      OFFSET 0.000000 -1.292898 4.893873
     }
    }
   }
  }
 }
}
MOTION
Frames: 12
Frame Time: 0.0333333333333333
-6725.251 106.1745 -491.7478 300.2944 352.1317 356.3349 357.4771 4.830867 1.60702 358.7955 2.152544 0.7456476 358.8029 2.261996 0.7325702 359.0725 1.778788 0.5342423 1.064111 17.5886 358.6893 2.549219 356.5682 357.1908 5.803389 7.293307 8.399842 347.241 0.5553979 75.84701 2.726383 39.8181 353.7185 4.322351 8.748341 359.4944 352.1755 6.305854 350.4061 350.1499 353.3015 288.156 355.1846 5.608355 355.7509 2.776777 354.2513 19.93854 356.2323 326.4386 2.612698 358.5777 52.87434 0.4042556 0.8190393 15.28919 7.893882 359.9572 0.6084204 0.2160917 13.88639 7.495481 2.537935 2.821964 43.21037 1.166931 353.6914 12.05666 352.9197 0.1545646 2.605522 0.0554679 
-6729.055 105.802 -489.772 300.6301 351.6665 357.2318 357.5168 4.679821 1.404392 358.8274 2.08863 0.6537227 358.8355 2.211015 0.6438449 359.1072 1.754592 0.4686668 0.6995875 17.69249 358.6944 1.885653 356.7561 357.3399 5.757172 7.409444 8.460888 346.3314 1.037682 76.12823 2.376476 40.65368 353.5516 4.160555 8.678764 359.2439 352.2596 6.55624 350.4093 350.1971 353.7998 288.1262 354.5683 6.444482 356.0242 2.830864 354.4285 20.46078 354.121 333.6093 3.911306 359.4367 43.16993 0.4352949 2.516335 17.3279 9.178701 359.9681 359.8939 359.9745 13.663 3.77073 2.052652 5.702544 53.55074 4.22258 355.4442 10.9106 354.0074 0.1452201 2.887779 0.2600316 
-6733.759 104.5803 -487.2811 301.0583 351.0158 358.3418 357.7274 4.671649 1.164518 358.9404 2.072339 0.5324315 358.9475 2.218664 0.5366929 359.198 1.785792 0.4034125 0.2276303 17.60312 358.6451 1.063448 356.5725 357.4172 5.756448 7.12559 8.518578 346.6451 1.083954 76.0261 1.851461 40.11375 353.4812 4.074064 8.703721 358.7732 352.4055 6.297818 350.4279 349.8712 354.8248 288.0723 354.3943 6.229579 356.2118 3.029238 354.6489 21.33993 352.0302 341.4492 5.031021 0.4772735 35.83696 0.263984 2.673916 16.73614 8.372629 0.004069599 357.7568 359.3405 13.29794 356.4177 1.250088 15.82497 70.71314 15.18382 359.3981 9.93242 357.039 0.1269712 1.151251 359.9473 
-6739.78 101.288 -483.9722 301.9022 350.5146 359.2904 358.3774 5.044627 0.8726349 359.2505 2.221623 0.3860964 359.2561 2.383665 0.4173582 359.4369 1.929586 0.3403217 359.6884 16.8983 358.5266 0.1331128 355.2418 357.3833 5.706448 5.578721 8.491677 349.368 0.5653439 75.06171 0.07298024 37.94725 353.3964 4.186247 8.843026 358.1532 353.0579 4.49778 350.5552 348.888 356.1945 288.1733 354.2857 5.118549 356.3953 3.479054 354.9032 22.43031 349.7287 349.0385 6.091276 3.200392 33.60745 359.9406 1.424725 9.357201 3.092376 0.0467729 354.8544 359.084 13.32663 343.1198 359.7645 132.5775 80.84711 133.7676 5.329799 8.723481 3.182357 359.9772 0.08717171 0.534706 
-6746.576 96.12186 -480.0179 302.8672 350.5679 359.7162 359.7316 6.193964 0.626907 359.8654 2.709983 0.2532804 359.8849 2.844486 0.3134135 359.8973 2.257011 0.2837363 359.0819 15.17966 358.2585 359.1143 352.0167 357.1049 5.902349 2.665213 8.214058 355.2998 357.9922 72.63242 358.0166 34.55382 353.4849 4.253407 8.902849 357.301 354.0578 0.8489345 350.6702 347.7214 357.1733 288.4211 354.7067 2.917804 356.32 3.986008 355.1895 23.34093 347.6629 354.2173 6.626109 6.737743 36.15356 0.0541775 359.4532 352.5993 356.009 0.009417415 354.7463 359.8162 13.63421 324.2865 357.1252 165.4618 60.56851 168.705 11.20584 6.157956 10.8507 359.884 2.73923 0.7684374 
-6752.277 93.24405 -476.6578 303.682 350.9096 359.9603 1.086377 7.452266 0.5089294 0.4905817 3.256963 0.1691485 0.4809138 3.338242 0.2248592 0.364397 2.577245 0.2075501 358.7683 13.60331 358.0468 358.5865 349.0836 356.8329 6.787304 1.153075 7.836849 0.9714079 354.2341 69.86021 357.3692 32.57468 353.4542 4.014539 8.740378 356.6219 354.3571 358.3892 350.6313 347.5575 357.2255 288.4592 355.5491 1.340174 356.1333 4.088782 355.3505 23.54331 346.6751 356.6066 6.146186 9.47513 39.58308 0.6163366 359.4196 341.2478 353.0955 359.9587 356.191 0.2099069 13.54186 309.7918 354.6641 168.7911 54.10217 172.382 12.77346 4.14829 14.26232 359.8726 3.819604 0.481196 
-6757.274 93.11752 -473.5298 304.0595 351.1812 0.330036 1.955889 7.969916 0.41745 0.9027969 3.481452 0.09455548 0.8843427 3.53709 0.1291936 0.6711599 2.697855 0.1042997 358.5397 12.96828 358.1412 358.109 347.9019 357.1032 7.601831 0.9903845 7.483987 4.335663 351.5465 67.92875 358.8979 32.37885 353.8223 3.523515 8.417742 356.4084 354.4344 357.5783 350.5044 348.6338 357.5445 287.6486 356.2411 1.347259 356.0871 4.174882 355.4754 23.47246 346.1552 359.4551 5.105319 9.89004 38.9399 0.4804218 359.6905 338.5835 352.6706 359.9551 355.9998 0.152318 12.16001 302.3984 354.0168 168.9358 55.9285 171.5288 12.02388 3.13004 13.59646 359.9081 3.323102 0.1039103 
-6762.427 94.60909 -470.1616 304.5318 351.5402 0.6506134 2.609556 7.787177 0.3121544 1.22516 3.395248 0.01652027 1.199917 3.451714 0.03615601 0.9131518 2.628718 359.9867 358.2586 13.03779 358.4142 357.4823 348.0175 357.7273 8.134369 1.369897 7.062367 6.417557 349.8788 66.62328 2.325468 33.02706 354.9545 2.794192 8.00061 356.2846 354.6667 357.6649 350.3317 350.9663 358.501 286.0961 356.8059 2.647974 356.1704 4.233352 355.5491 23.20321 345.7429 4.091884 3.540543 9.181346 34.219 359.6694 359.5397 340.2642 353.3835 359.9757 353.4503 359.8769 9.011461 298.743 355.5612 166.8909 62.20486 167.7855 10.61723 2.842579 10.96597 359.9498 2.493287 359.8247 
-6767.57 97.79134 -466.5975 305.1628 352.238 0.6518745 3.130578 6.905593 0.1217003 1.49657 2.999503 359.9373 1.466416 3.071942 359.9037 1.122491 2.352198 359.8617 358.0115 13.80679 358.8651 356.8748 349.4265 358.6428 8.535686 2.526752 6.728599 7.109004 348.9628 66.2338 7.693093 34.53003 356.9022 1.89307 7.457135 356.4711 354.8352 358.7397 350.1732 354.1111 359.8775 284.287 357.0257 4.897919 356.5121 4.302259 355.5421 22.90645 345.7031 8.568477 1.670086 7.140089 27.94099 359.0411 0.02582421 347.9018 355.9965 0.02519158 347.7216 359.125 5.234238 299.5962 358.0369 159.2336 73.02554 158.3588 9.012336 3.838481 7.592026 359.9734 1.315845 359.7984 
-6772.96 102.4652 -462.6575 305.9267 353.1267 0.3087944 3.583485 5.646117 359.8318 1.736659 2.440623 359.8239 1.705933 2.524936 359.7546 1.313221 1.948325 359.718 357.8164 15.09926 359.5371 356.3025 351.8087 359.908 9.068048 4.830947 6.759159 6.385281 347.9733 66.42472 13.87061 36.51211 359.2386 0.6673026 6.937165 357.1177 354.5449 1.390425 349.9945 357.3303 0.5464123 282.859 357.1918 7.202776 356.9441 4.105426 355.5772 22.65939 346.4908 10.98748 0.01092473 3.564008 23.4108 359.4709 2.161268 1.958277 1.969656 0.07496866 342.8505 358.2028 3.759023 306.3658 358.5375 73.31129 84.63676 71.25935 7.153184 5.878798 3.535181 -0.0007286743 0.6673461 359.8749 
-6778.96 105.8636 -458.1135 306.5105 353.4578 359.5964 3.987378 4.510268 359.698 1.926032 1.930475 359.7925 1.899038 2.027411 359.7007 1.46201 1.581333 359.6662 357.7917 16.24781 0.1938993 356.0396 353.9243 1.060309 9.527366 7.101704 6.984795 5.543366 346.5799 65.97873 18.70658 38.43919 1.103083 359.7013 6.629321 358.125 354.1461 3.960784 349.7428 359.6631 0.7974354 282.1733 357.6892 8.829626 357.3611 3.8682 355.6794 22.52668 347.8821 9.56257 359.7903 1.208913 29.66198 0.374265 3.809556 12.06161 7.770168 0.05589664 349.3782 358.2379 5.100593 318.341 357.5746 8.107296 66.31098 5.953055 3.535402 9.506291 358.4961 0.09093872 0.7681798 359.5674 
-6785.006 107.0037 -453.4414 307.0999 353.0382 358.5859 4.045017 4.03432 359.7562 1.917819 1.714014 359.8399 1.895952 1.824892 359.7553 1.449337 1.438628 359.7204 358.1204 17.00136 0.6235918 356.4864 355.3078 1.674733 9.490013 8.639346 7.04565 5.092765 345.8439 65.511 20.63436 39.73387 1.612978 359.3312 6.351598 359.0767 353.8484 5.092684 349.6192 0.641288 1.335803 282.2776 358.3192 8.930493 357.5269 3.768878 355.4896 22.37823 349.8113 4.316171 0.9922544 0.8761917 48.14016 1.037964 3.388699 13.22292 8.946944 359.9299 0.8781434 359.7997 6.538876 331.2145 357.4748 1.582689 45.49327 359.9615 358.5059 14.3401 353.5997 0.1169269 0.09704254 359.8734 
